Coordinates
version=1
nRows=13
nColumns=40
inDegrees=yes

Units are S.I. units (second, meters, Newtons, ...)
Angles are in degrees.

endheader
time	pelvis_tilt	pelvis_list	pelvis_rotation	pelvis_tx	pelvis_ty	pelvis_tz	hip_flexion_r	hip_adduction_r	hip_rotation_r	knee_angle_r	knee_angle_r_beta	ankle_angle_r	subtalar_angle_r	mtp_angle_r	hip_flexion_l	hip_adduction_l	hip_rotation_l	knee_angle_l	knee_angle_l_beta	ankle_angle_l	subtalar_angle_l	mtp_angle_l	lumbar_extension	lumbar_bending	lumbar_rotation	arm_flex_r	arm_add_r	arm_rot_r	elbow_flex_r	pro_sup_r	wrist_flex_r	wrist_dev_r	arm_flex_l	arm_add_l	arm_rot_l	elbow_flex_l	pro_sup_l	wrist_flex_l	wrist_dev_l
     28.85928571	     -8.63983821	     -5.71586411	      1.94164021	      1.04130031	      0.92536659	      0.51271157	     15.20906687	      2.73775735	    -14.31555850	     14.42655961	     14.42655961	      9.58454285	      1.52230330	     -4.41525833	     43.92539160	    -11.38097482	      4.21696102	     53.20143247	     53.20143247	      9.79695415	    -18.83719907	     16.14140472	    -14.73593483	      4.00743030	      2.26467757	     24.61393305	    -21.38737807	      7.88251197	     79.21929857	     44.31541230	      0.00000000	      0.00000000	     -7.25105237	     -7.08152016	     -9.74578615	     40.87947355	     46.89751019	      0.00000000	      0.00000000
     28.87107143	     -8.70794247	     -5.63716340	      2.21528216	      1.03986105	      0.92544440	      0.51217968	     14.58317543	      2.66340712	    -14.41682036	     14.04450537	     14.04450537	      9.86031724	      1.56343094	     -4.47511950	     44.28365805	    -10.91539815	      4.20788826	     49.94737518	     49.94737518	      9.78717875	    -18.67977474	     16.29725807	    -14.71949124	      3.94392287	      2.23765416	     26.26732011	    -21.06702386	      7.80538644	     80.77885489	     44.28460157	      0.00000000	      0.00000000	     -7.49642074	     -7.04014263	     -9.73523472	     39.92044888	     46.88058558	      0.00000000	      0.00000000
     28.88285714	     -8.80962839	     -5.64393652	      2.48898373	      1.03845920	      0.92533137	      0.51146615	     13.93110999	      2.67029030	    -14.65123002	     13.53965764	     13.53965764	     10.08427925	      1.82630757	     -4.56374608	     44.57378926	    -10.45301946	      4.43275448	     46.61411891	     46.61411891	      9.74900988	    -18.34122405	     16.02188964	    -14.71586881	      4.03604342	      2.08229354	     27.95652987	    -20.71169573	      7.95406567	     82.87998266	     44.23392673	      0.00000000	      0.00000000	     -7.59167304	     -6.97217618	     -9.78633292	     38.49646987	     46.86817779	      0.00000000	      0.00000000
     28.89464286	     -8.93537608	     -5.67868359	      2.69401175	      1.03722796	      0.92510990	      0.51070139	     13.29406901	      2.69025780	    -15.04252357	     13.04751762	     13.04751762	     10.32565987	      2.38235965	     -4.86644250	     44.69092065	    -10.11031095	      4.56973265	     43.08645719	     43.08645719	      9.05769126	    -17.80262343	     14.05702635	    -14.60916868	      4.15753884	      2.61167572	     29.12317605	    -21.23401000	      8.37870301	     85.65509425	     44.19084609	      0.00000000	      0.00000000	     -6.82202397	     -6.74163650	    -10.36047743	     35.85265848	     46.90531790	      0.00000000	      0.00000000
     28.90642857	     -9.15183577	     -5.85954251	      2.85586482	      1.03594993	      0.92453682	      0.50998629	     12.92571943	      2.86784500	    -15.18806393	     12.85118577	     12.85118577	     10.60747739	      2.39214216	     -4.97382477	     44.97261552	     -9.88955144	      4.93137636	     39.85543813	     39.85543813	      9.27234462	    -16.77892897	     14.29393796	    -14.34996609	      4.37798352	      2.99983063	     30.66816656	    -21.06198720	      8.14007111	     86.49062901	     44.18126735	      0.00000000	      0.00000000	     -7.09626134	     -6.75738160	    -10.39356957	     35.64959081	     46.90339785	      0.00000000	      0.00000000
     28.91821429	     -9.10368572	     -5.73020702	      3.00055463	      1.03520894	      0.92457181	      0.50902802	     11.87397328	      2.79624530	    -15.31893303	     11.98586950	     11.98586950	     10.84179072	      2.93362692	     -4.97949435	     44.62417945	     -9.49519541	      4.96569371	     36.45177278	     36.45177278	      9.36565713	    -15.52627764	     14.17990091	    -14.46224719	      4.29895520	      2.62493053	     32.35230178	    -20.06772787	      8.20972991	     88.64315579	     44.12782430	      0.00000000	      0.00000000	     -7.53689177	     -6.90214924	    -10.50982342	     34.95984880	     46.90449466	      0.00000000	      0.00000000
     28.93000000	     -9.13497958	     -5.88131385	      3.11898527	      1.03458877	      0.92418369	      0.50813940	     11.00252116	      2.99843158	    -15.63061552	     11.29390611	     11.29390611	     11.06939227	      3.55169386	     -5.07876650	     44.40978434	     -9.42205605	      5.04748881	     33.32144695	     33.32144695	      9.50561340	    -13.96432239	     13.89874769	    -14.41842550	      4.47950426	      2.65671771	     33.79853054	    -19.52716390	      8.38616121	     90.48724473	     44.08307094	      0.00000000	      0.00000000	     -7.81978290	     -6.96772202	    -10.70970814	     34.46625626	     46.91699596	      0.00000000	      0.00000000
     28.94178571	     -9.14178372	     -6.07066978	      3.21042896	      1.03423700	      0.92366578	      0.50714852	     10.08127121	      3.24019426	    -15.95481238	     10.59147721	     10.59147721	     11.29788660	      4.27492726	     -5.21014658	     44.11031458	     -9.44607523	      5.00460815	     30.43572418	     30.43572418	      9.62606414	    -12.30808356	     13.63621527	    -14.36291352	      4.72555068	      2.80153474	     35.12048306	    -19.07196802	      8.63179134	     92.31993585	     44.03999900	      0.00000000	      0.00000000	     -8.05421318	     -7.02005127	    -10.99523535	     34.09315894	     46.94044868	      0.00000000	      0.00000000
     28.95357143	     -9.12596321	     -6.25490510	      3.23390426	      1.03423455	      0.92302151	      0.50608418	      9.11149814	      3.47105637	    -16.34719211	      9.88897400	      9.88897400	     11.54870865	      5.21232192	     -5.47794800	     43.67995056	     -9.54933099	      4.71874294	     27.78939004	     27.78939004	      9.57785508	    -10.78292112	     13.02475706	    -14.28612733	      4.94728903	      3.16834357	     36.17092136	    -18.92016257	      8.97203606	     94.49804381	     44.03095462	      0.00000000	      0.00000000	     -8.16278471	     -6.99022299	    -11.94391829	     33.80363620	     47.02768263	      0.00000000	      0.00000000
     28.96535714	     -9.09342052	     -6.42184906	      3.22029833	      1.03448951	      0.92230217	      0.50498563	      8.13481265	      3.71489640	    -16.40692832	      9.23322032	      9.23322032	     11.83968195	      5.69037032	     -5.51807002	     43.16423644	     -9.65387470	      4.33629158	     25.50002859	     25.50002859	      9.74284887	     -9.52953092	     13.32870642	    -14.15674556	      5.13734070	      3.24042158	     37.34409552	    -18.09106093	      9.08553804	     95.77414196	     44.00711874	      0.00000000	      0.00000000	     -8.53801936	     -7.15166992	    -12.10319739	     33.67373855	     47.03364721	      0.00000000	      0.00000000
     28.97714286	     -9.16824831	     -6.69659764	      3.17135241	      1.03488050	      0.92114599	      0.50380083	      7.39783404	      4.02415462	    -16.44748688	      8.82783977	      8.82783977	     12.18736388	      6.04877240	     -5.62127015	     42.78521808	     -9.85140659	      3.92844773	     23.65732140	     23.65732140	      9.78171750	     -8.67594791	     13.68019212	    -13.83021397	      5.46154463	      3.53436438	     38.44439618	    -17.50057797	      9.16606099	     96.71079392	     43.98557250	      0.00000000	      0.00000000	     -8.77308729	     -7.24925587	    -12.18596138	     33.65163733	     47.03816659	      0.00000000	      0.00000000
     28.98892857	     -8.97209760	     -6.88217585	      3.12743202	      1.03596632	      0.92030177	      0.50248718	      6.02047075	      4.31940339	    -16.66749054	      7.85367419	      7.85367419	     12.48999531	      7.05888276	     -5.55029749	     42.04878396	    -10.07725038	      3.06734862	     22.26928755	     22.26928755	      9.96537183	     -7.63250078	     13.89042061	    -13.82066723	      5.66834544	      3.38370462	     39.30317267	    -16.52233658	      9.67239545	     98.60162700	     43.93794439	      0.00000000	      0.00000000	     -9.37203213	     -7.41249372	    -12.48732070	     33.89927266	     47.05719501	      0.00000000	      0.00000000
     29.00071429	     -8.96987292	     -7.05198912	      3.00549852	      1.03699809	      0.91896327	      0.50106800	      5.19615141	      4.49295297	    -16.59044522	      7.54997520	      7.54997520	     12.95871025	      7.38751751	     -5.61958777	     41.41683758	    -10.24307416	      2.30476998	     21.12186614	     21.12186614	      9.81303955	     -7.28485701	     14.14344832	    -13.49878932	      5.86423324	      3.59215515	     40.09470228	    -15.81490138	      9.86478613	     99.53705248	     43.91409604	      0.00000000	      0.00000000	     -9.63727117	     -7.54029085	    -12.58823260	     33.97939127	     47.06277102	      0.00000000	      0.00000000
